<svg width="24" height="24" viewBox="0 0 24 24" fill="none" xmlns="http://www.w3.org/2000/svg">
<mask id="mask0_1_18" style="mask-type:alpha" maskUnits="userSpaceOnUse" x="0" y="0" width="24" height="24">
<rect width="24" height="24" fill="#D9D9D9"/>
</mask>
<g mask="url(#mask0_1_18)">
<path d="M11.9927 1C12.3328 1.14713 12.7931 1.40923 13.1386 1.58849L15.2845 2.70078L21.9938 6.18657C21.9782 7.49782 22.0315 8.89616 21.968 10.2016C21.9319 10.9417 21.1978 11.4831 20.6647 11.541C20.2517 11.5862 19.7764 11.5721 19.3437 11.5721L16.8293 11.5708L9.54385 11.5711C8.32966 11.5708 7.11861 11.5656 5.90117 11.5728C5.07305 11.5777 5.23034 12.1561 5.21393 12.9901C5.20632 13.3758 5.21137 13.8048 5.23457 14.1889C5.34623 14.3956 5.47133 14.57 5.67497 14.605C6.02087 14.6642 6.43588 14.642 6.78956 14.64L8.54269 14.6358L16.8101 14.6384L18.9775 14.6351C19.9009 14.6332 20.8257 14.5039 21.5404 15.423C22.0317 16.0551 21.9956 16.7107 21.9872 17.5365C21.9838 17.8634 21.9872 18.2089 21.9872 18.538L21.9869 22.9993L2 23L2.0002 19.0762L5.21994 19.0746C5.2172 19.28 5.21572 19.4858 5.21549 19.6913C5.21592 20.2063 5.31819 20.5282 5.76446 20.5841C6.09172 20.625 6.43337 20.6048 6.76339 20.6044L8.59979 20.6005L17.791 20.6077C18.1313 20.6077 18.6984 20.5936 18.7202 19.9995C18.7427 19.3883 18.7125 18.7729 18.731 18.1552C18.7435 17.7345 18.4772 17.5718 18.1851 17.5414C17.7649 17.5215 17.3373 17.5378 16.9163 17.5417C16.1917 17.547 15.4671 17.547 14.7425 17.5414L6.97015 17.5408L4.96092 17.5444C4.52356 17.546 4.04162 17.58 3.61077 17.4904C2.78795 17.3252 2.00638 16.4882 2.01649 15.333C2.02986 13.8087 1.96177 12.0243 2.05231 10.5006C2.08944 9.87539 2.81923 9.23773 3.29895 9.19945C3.82503 9.1579 4.46211 9.16313 5.02232 9.16281H8.18397L18.7724 9.16215L18.7794 7.98531L12.0122 4.17107C10.4075 5.04345 8.79721 6.04117 7.19136 6.92412C6.62269 7.23673 5.89454 7.73273 5.30828 7.96437C5.1736 8.01737 4.36548 8.00068 4.18033 8.00068L2.01367 7.99741L2.00154 6.22086L11.9927 1Z" fill="white"/>
</g>
</svg>
